<mxfile host="Electron" modified="2024-12-20T18:20:09.110Z" agent="Mozilla/5.0 (Windows NT 10.0; Win64; x64) AppleWebKit/537.36 (KHTML, like Gecko) draw.io/24.4.8 Chrome/124.0.6367.207 Electron/30.0.6 Safari/537.36" etag="Gat5HD0ngJiT41DMfTkk" version="24.4.8" type="device">
  <diagram name="Страница — 1" id="iq7Vs2HT0NVokL1ycled">
    <mxGraphModel dx="3167" dy="1820" grid="0" gridSize="10" guides="1" tooltips="1" connect="1" arrows="1" fold="1" page="0" pageScale="1" pageWidth="1169" pageHeight="827" math="0" shadow="0">
      <root>
        <mxCell id="0" />
        <mxCell id="1" parent="0" />
        <mxCell id="nMlKuRbTzB290kjGr_6E-1" value="Пользователь" style="shape=umlActor;verticalLabelPosition=bottom;verticalAlign=top;html=1;outlineConnect=0;" parent="1" vertex="1">
          <mxGeometry x="-205" y="492" width="211.5" height="423" as="geometry" />
        </mxCell>
        <mxCell id="nMlKuRbTzB290kjGr_6E-35" style="edgeStyle=none;rounded=0;orthogonalLoop=1;jettySize=auto;html=1;exitX=0;exitY=0.5;exitDx=0;exitDy=0;endArrow=none;endFill=0;" parent="1" source="nMlKuRbTzB290kjGr_6E-2" target="nMlKuRbTzB290kjGr_6E-1" edge="1">
          <mxGeometry relative="1" as="geometry" />
        </mxCell>
        <mxCell id="nMlKuRbTzB290kjGr_6E-2" value="Изучить общую информацию о филиалах" style="ellipse;whiteSpace=wrap;html=1;" parent="1" vertex="1">
          <mxGeometry x="171" y="-52" width="205" height="119" as="geometry" />
        </mxCell>
        <mxCell id="nMlKuRbTzB290kjGr_6E-3" value="Изучить краткую контактную информацию&amp;nbsp; филиала" style="ellipse;whiteSpace=wrap;html=1;" parent="1" vertex="1">
          <mxGeometry x="171" y="83" width="205" height="119" as="geometry" />
        </mxCell>
        <mxCell id="nMlKuRbTzB290kjGr_6E-37" style="edgeStyle=none;rounded=0;orthogonalLoop=1;jettySize=auto;html=1;exitX=0;exitY=0.5;exitDx=0;exitDy=0;endArrow=none;endFill=0;" parent="1" source="nMlKuRbTzB290kjGr_6E-4" target="nMlKuRbTzB290kjGr_6E-1" edge="1">
          <mxGeometry relative="1" as="geometry" />
        </mxCell>
        <mxCell id="nMlKuRbTzB290kjGr_6E-4" value="Перейти с интернет-ресурса на главный сайт предприятия" style="ellipse;whiteSpace=wrap;html=1;" parent="1" vertex="1">
          <mxGeometry x="171" y="213" width="205" height="119" as="geometry" />
        </mxCell>
        <mxCell id="nMlKuRbTzB290kjGr_6E-38" style="edgeStyle=none;rounded=0;orthogonalLoop=1;jettySize=auto;html=1;exitX=0;exitY=0.5;exitDx=0;exitDy=0;endArrow=none;endFill=0;" parent="1" source="nMlKuRbTzB290kjGr_6E-5" target="nMlKuRbTzB290kjGr_6E-1" edge="1">
          <mxGeometry relative="1" as="geometry" />
        </mxCell>
        <mxCell id="nMlKuRbTzB290kjGr_6E-5" value="Перейти на страницу с информацией о филиале" style="ellipse;whiteSpace=wrap;html=1;" parent="1" vertex="1">
          <mxGeometry x="171" y="341" width="205" height="119" as="geometry" />
        </mxCell>
        <mxCell id="nMlKuRbTzB290kjGr_6E-46" style="edgeStyle=none;rounded=0;orthogonalLoop=1;jettySize=auto;html=1;exitX=0;exitY=0.5;exitDx=0;exitDy=0;entryX=1;entryY=0;entryDx=0;entryDy=0;endArrow=open;endFill=0;dashed=1;" parent="1" source="nMlKuRbTzB290kjGr_6E-6" target="nMlKuRbTzB290kjGr_6E-5" edge="1">
          <mxGeometry relative="1" as="geometry">
            <Array as="points" />
          </mxGeometry>
        </mxCell>
        <mxCell id="nMlKuRbTzB290kjGr_6E-47" value="extend" style="edgeLabel;html=1;align=center;verticalAlign=middle;resizable=0;points=[];rotation=-45;" parent="nMlKuRbTzB290kjGr_6E-46" vertex="1" connectable="0">
          <mxGeometry x="0.2288" y="-1" relative="1" as="geometry">
            <mxPoint x="24" y="-29" as="offset" />
          </mxGeometry>
        </mxCell>
        <mxCell id="nMlKuRbTzB290kjGr_6E-6" value="Перейти на страницу с информацией о филиале с помощью кнопки" style="ellipse;whiteSpace=wrap;html=1;" parent="1" vertex="1">
          <mxGeometry x="462" y="213" width="205" height="119" as="geometry" />
        </mxCell>
        <mxCell id="nMlKuRbTzB290kjGr_6E-7" value="Перейти на страницу с информацией о филиале с помощью выбора элемента из списка меню" style="ellipse;whiteSpace=wrap;html=1;" parent="1" vertex="1">
          <mxGeometry x="462" y="341" width="205" height="119" as="geometry" />
        </mxCell>
        <mxCell id="nMlKuRbTzB290kjGr_6E-8" value="Перейти на страницу с информацией о филиале с помощью выбора быстрой ссылки" style="ellipse;whiteSpace=wrap;html=1;" parent="1" vertex="1">
          <mxGeometry x="462" y="469" width="205" height="119" as="geometry" />
        </mxCell>
        <mxCell id="nMlKuRbTzB290kjGr_6E-39" style="edgeStyle=none;rounded=0;orthogonalLoop=1;jettySize=auto;html=1;exitX=0;exitY=0.5;exitDx=0;exitDy=0;endArrow=none;endFill=0;" parent="1" source="nMlKuRbTzB290kjGr_6E-9" target="nMlKuRbTzB290kjGr_6E-1" edge="1">
          <mxGeometry relative="1" as="geometry" />
        </mxCell>
        <mxCell id="nMlKuRbTzB290kjGr_6E-9" value="Изучить подробную информацию о филиале" style="ellipse;whiteSpace=wrap;html=1;" parent="1" vertex="1">
          <mxGeometry x="171" y="477" width="205" height="119" as="geometry" />
        </mxCell>
        <mxCell id="nMlKuRbTzB290kjGr_6E-40" style="edgeStyle=none;rounded=0;orthogonalLoop=1;jettySize=auto;html=1;exitX=0;exitY=0.5;exitDx=0;exitDy=0;endArrow=none;endFill=0;" parent="1" source="nMlKuRbTzB290kjGr_6E-10" target="nMlKuRbTzB290kjGr_6E-1" edge="1">
          <mxGeometry relative="1" as="geometry" />
        </mxCell>
        <mxCell id="nMlKuRbTzB290kjGr_6E-10" value="Изучить последние новости филиала" style="ellipse;whiteSpace=wrap;html=1;" parent="1" vertex="1">
          <mxGeometry x="171" y="610" width="205" height="119" as="geometry" />
        </mxCell>
        <mxCell id="nMlKuRbTzB290kjGr_6E-41" style="edgeStyle=none;rounded=0;orthogonalLoop=1;jettySize=auto;html=1;exitX=0;exitY=0.5;exitDx=0;exitDy=0;endArrow=none;endFill=0;" parent="1" source="nMlKuRbTzB290kjGr_6E-11" target="nMlKuRbTzB290kjGr_6E-1" edge="1">
          <mxGeometry relative="1" as="geometry" />
        </mxCell>
        <mxCell id="nMlKuRbTzB290kjGr_6E-11" value="Изучить актуальные вакансии филиала" style="ellipse;whiteSpace=wrap;html=1;" parent="1" vertex="1">
          <mxGeometry x="171" y="743" width="205" height="119" as="geometry" />
        </mxCell>
        <mxCell id="nMlKuRbTzB290kjGr_6E-42" style="edgeStyle=none;rounded=0;orthogonalLoop=1;jettySize=auto;html=1;exitX=0;exitY=0.5;exitDx=0;exitDy=0;endArrow=none;endFill=0;" parent="1" source="nMlKuRbTzB290kjGr_6E-12" target="nMlKuRbTzB290kjGr_6E-1" edge="1">
          <mxGeometry relative="1" as="geometry" />
        </mxCell>
        <mxCell id="nMlKuRbTzB290kjGr_6E-12" value="Изучить подробные контактные данные филиала" style="ellipse;whiteSpace=wrap;html=1;" parent="1" vertex="1">
          <mxGeometry x="171" y="871" width="205" height="119" as="geometry" />
        </mxCell>
        <mxCell id="nMlKuRbTzB290kjGr_6E-43" style="edgeStyle=none;rounded=0;orthogonalLoop=1;jettySize=auto;html=1;exitX=0;exitY=0.5;exitDx=0;exitDy=0;endArrow=none;endFill=0;" parent="1" source="nMlKuRbTzB290kjGr_6E-13" target="nMlKuRbTzB290kjGr_6E-1" edge="1">
          <mxGeometry relative="1" as="geometry" />
        </mxCell>
        <mxCell id="nMlKuRbTzB290kjGr_6E-13" value="Быстро найти предприятие на карте" style="ellipse;whiteSpace=wrap;html=1;" parent="1" vertex="1">
          <mxGeometry x="171" y="1005" width="205" height="119" as="geometry" />
        </mxCell>
        <mxCell id="nMlKuRbTzB290kjGr_6E-44" style="edgeStyle=none;rounded=0;orthogonalLoop=1;jettySize=auto;html=1;exitX=0;exitY=0.5;exitDx=0;exitDy=0;endArrow=none;endFill=0;" parent="1" source="nMlKuRbTzB290kjGr_6E-14" target="nMlKuRbTzB290kjGr_6E-1" edge="1">
          <mxGeometry relative="1" as="geometry" />
        </mxCell>
        <mxCell id="nMlKuRbTzB290kjGr_6E-14" value="Найти ифнормацию на сайте при помощи поиска" style="ellipse;whiteSpace=wrap;html=1;" parent="1" vertex="1">
          <mxGeometry x="171" y="1137" width="205" height="119" as="geometry" />
        </mxCell>
        <mxCell id="nMlKuRbTzB290kjGr_6E-45" style="edgeStyle=none;rounded=0;orthogonalLoop=1;jettySize=auto;html=1;exitX=0;exitY=0.5;exitDx=0;exitDy=0;endArrow=none;endFill=0;" parent="1" source="nMlKuRbTzB290kjGr_6E-15" target="nMlKuRbTzB290kjGr_6E-1" edge="1">
          <mxGeometry relative="1" as="geometry" />
        </mxCell>
        <mxCell id="nMlKuRbTzB290kjGr_6E-15" value="Перейти в актуальные социальные сети филиала" style="ellipse;whiteSpace=wrap;html=1;" parent="1" vertex="1">
          <mxGeometry x="171" y="1271" width="205" height="119" as="geometry" />
        </mxCell>
        <mxCell id="nMlKuRbTzB290kjGr_6E-53" style="edgeStyle=none;rounded=0;orthogonalLoop=1;jettySize=auto;html=1;exitX=0;exitY=0.5;exitDx=0;exitDy=0;endArrow=none;endFill=0;" parent="1" source="nMlKuRbTzB290kjGr_6E-17" target="nMlKuRbTzB290kjGr_6E-52" edge="1">
          <mxGeometry relative="1" as="geometry" />
        </mxCell>
        <mxCell id="nMlKuRbTzB290kjGr_6E-17" value="Редактировать сайт" style="ellipse;whiteSpace=wrap;html=1;" parent="1" vertex="1">
          <mxGeometry x="1140" y="148" width="205" height="119" as="geometry" />
        </mxCell>
        <mxCell id="nMlKuRbTzB290kjGr_6E-54" style="edgeStyle=none;rounded=0;orthogonalLoop=1;jettySize=auto;html=1;exitX=0;exitY=0.5;exitDx=0;exitDy=0;endArrow=none;endFill=0;" parent="1" source="nMlKuRbTzB290kjGr_6E-18" target="nMlKuRbTzB290kjGr_6E-52" edge="1">
          <mxGeometry relative="1" as="geometry" />
        </mxCell>
        <mxCell id="nMlKuRbTzB290kjGr_6E-18" value="Изучить данные сайта" style="ellipse;whiteSpace=wrap;html=1;" parent="1" vertex="1">
          <mxGeometry x="1140" y="611" width="205" height="119" as="geometry" />
        </mxCell>
        <mxCell id="nMlKuRbTzB290kjGr_6E-55" style="edgeStyle=none;rounded=0;orthogonalLoop=1;jettySize=auto;html=1;exitX=0;exitY=0.5;exitDx=0;exitDy=0;endArrow=none;endFill=0;" parent="1" source="nMlKuRbTzB290kjGr_6E-19" target="nMlKuRbTzB290kjGr_6E-52" edge="1">
          <mxGeometry relative="1" as="geometry" />
        </mxCell>
        <mxCell id="nMlKuRbTzB290kjGr_6E-19" value="Изучить и изменить данные пользователя" style="ellipse;whiteSpace=wrap;html=1;" parent="1" vertex="1">
          <mxGeometry x="1140" y="1163" width="205" height="119" as="geometry" />
        </mxCell>
        <mxCell id="nMlKuRbTzB290kjGr_6E-20" value="Редактировать контакную информацию филиала" style="ellipse;whiteSpace=wrap;html=1;" parent="1" vertex="1">
          <mxGeometry x="1431" y="-40" width="205" height="119" as="geometry" />
        </mxCell>
        <mxCell id="nMlKuRbTzB290kjGr_6E-21" value="Редактировать новости филиала" style="ellipse;whiteSpace=wrap;html=1;" parent="1" vertex="1">
          <mxGeometry x="1431" y="89" width="205" height="119" as="geometry" />
        </mxCell>
        <mxCell id="nMlKuRbTzB290kjGr_6E-22" value="Редактировать актуальные вакансии филиала" style="ellipse;whiteSpace=wrap;html=1;" parent="1" vertex="1">
          <mxGeometry x="1431" y="223" width="205" height="119" as="geometry" />
        </mxCell>
        <mxCell id="nMlKuRbTzB290kjGr_6E-23" value="Редактировать шаблоны, плагины и дизайн сайта" style="ellipse;whiteSpace=wrap;html=1;" parent="1" vertex="1">
          <mxGeometry x="1431" y="353" width="205" height="119" as="geometry" />
        </mxCell>
        <mxCell id="nMlKuRbTzB290kjGr_6E-24" value="Изучить посещаемость сайта" style="ellipse;whiteSpace=wrap;html=1;" parent="1" vertex="1">
          <mxGeometry x="1431" y="483" width="205" height="119" as="geometry" />
        </mxCell>
        <mxCell id="nMlKuRbTzB290kjGr_6E-25" value="Изучить популярность страниц" style="ellipse;whiteSpace=wrap;html=1;" parent="1" vertex="1">
          <mxGeometry x="1431" y="610" width="205" height="119" as="geometry" />
        </mxCell>
        <mxCell id="nMlKuRbTzB290kjGr_6E-26" value="Изучить предыдущие версии страниц" style="ellipse;whiteSpace=wrap;html=1;" parent="1" vertex="1">
          <mxGeometry x="1431" y="739" width="205" height="119" as="geometry" />
        </mxCell>
        <mxCell id="nMlKuRbTzB290kjGr_6E-27" value="Изучить роли пользователя" style="ellipse;whiteSpace=wrap;html=1;" parent="1" vertex="1">
          <mxGeometry x="1431" y="913" width="205" height="119" as="geometry" />
        </mxCell>
        <mxCell id="nMlKuRbTzB290kjGr_6E-28" value="Изучить и изменить роли пользователя" style="ellipse;whiteSpace=wrap;html=1;" parent="1" vertex="1">
          <mxGeometry x="1431" y="1420" width="205" height="119" as="geometry" />
        </mxCell>
        <mxCell id="nMlKuRbTzB290kjGr_6E-29" value="Изменить роли пользователя" style="ellipse;whiteSpace=wrap;html=1;" parent="1" vertex="1">
          <mxGeometry x="1431" y="1038" width="205" height="119" as="geometry" />
        </mxCell>
        <mxCell id="nMlKuRbTzB290kjGr_6E-30" value="Изучить количество записей пользователя" style="ellipse;whiteSpace=wrap;html=1;" parent="1" vertex="1">
          <mxGeometry x="1431" y="1164" width="205" height="119" as="geometry" />
        </mxCell>
        <mxCell id="nMlKuRbTzB290kjGr_6E-31" value="Изучить почтовый адрес пользователя" style="ellipse;whiteSpace=wrap;html=1;" parent="1" vertex="1">
          <mxGeometry x="1431" y="1292" width="205" height="119" as="geometry" />
        </mxCell>
        <mxCell id="nMlKuRbTzB290kjGr_6E-36" style="edgeStyle=none;rounded=0;orthogonalLoop=1;jettySize=auto;html=1;exitX=0;exitY=0.5;exitDx=0;exitDy=0;endArrow=none;endFill=0;" parent="1" source="nMlKuRbTzB290kjGr_6E-3" target="nMlKuRbTzB290kjGr_6E-1" edge="1">
          <mxGeometry relative="1" as="geometry" />
        </mxCell>
        <mxCell id="nMlKuRbTzB290kjGr_6E-48" style="edgeStyle=none;rounded=0;orthogonalLoop=1;jettySize=auto;html=1;exitX=0;exitY=0.5;exitDx=0;exitDy=0;entryX=1;entryY=0.5;entryDx=0;entryDy=0;endArrow=open;endFill=0;dashed=1;" parent="1" source="nMlKuRbTzB290kjGr_6E-7" target="nMlKuRbTzB290kjGr_6E-5" edge="1">
          <mxGeometry relative="1" as="geometry">
            <mxPoint x="529" y="289" as="sourcePoint" />
            <mxPoint x="364" y="369" as="targetPoint" />
            <Array as="points" />
          </mxGeometry>
        </mxCell>
        <mxCell id="nMlKuRbTzB290kjGr_6E-49" value="extend" style="edgeLabel;html=1;align=center;verticalAlign=middle;resizable=0;points=[];rotation=0;" parent="nMlKuRbTzB290kjGr_6E-48" vertex="1" connectable="0">
          <mxGeometry x="0.2288" y="-1" relative="1" as="geometry">
            <mxPoint x="15" y="-7" as="offset" />
          </mxGeometry>
        </mxCell>
        <mxCell id="nMlKuRbTzB290kjGr_6E-50" style="edgeStyle=none;rounded=0;orthogonalLoop=1;jettySize=auto;html=1;exitX=0;exitY=0.5;exitDx=0;exitDy=0;entryX=1;entryY=1;entryDx=0;entryDy=0;endArrow=open;endFill=0;dashed=1;" parent="1" source="nMlKuRbTzB290kjGr_6E-8" target="nMlKuRbTzB290kjGr_6E-5" edge="1">
          <mxGeometry relative="1" as="geometry">
            <mxPoint x="539" y="299" as="sourcePoint" />
            <mxPoint x="374" y="379" as="targetPoint" />
            <Array as="points" />
          </mxGeometry>
        </mxCell>
        <mxCell id="nMlKuRbTzB290kjGr_6E-51" value="extend" style="edgeLabel;html=1;align=center;verticalAlign=middle;resizable=0;points=[];rotation=35;" parent="nMlKuRbTzB290kjGr_6E-50" vertex="1" connectable="0">
          <mxGeometry x="0.2288" y="-1" relative="1" as="geometry">
            <mxPoint x="37" y="13" as="offset" />
          </mxGeometry>
        </mxCell>
        <mxCell id="nMlKuRbTzB290kjGr_6E-52" value="Администратор" style="shape=umlActor;verticalLabelPosition=bottom;verticalAlign=top;html=1;outlineConnect=0;" parent="1" vertex="1">
          <mxGeometry x="764" y="560" width="211.5" height="423" as="geometry" />
        </mxCell>
        <mxCell id="nMlKuRbTzB290kjGr_6E-56" style="edgeStyle=none;rounded=0;orthogonalLoop=1;jettySize=auto;html=1;exitX=0;exitY=0.5;exitDx=0;exitDy=0;endArrow=open;endFill=0;dashed=1;" parent="1" source="nMlKuRbTzB290kjGr_6E-20" target="nMlKuRbTzB290kjGr_6E-17" edge="1">
          <mxGeometry relative="1" as="geometry">
            <mxPoint x="1441" y="137" as="sourcePoint" />
            <mxPoint x="1277" y="52" as="targetPoint" />
            <Array as="points" />
          </mxGeometry>
        </mxCell>
        <mxCell id="nMlKuRbTzB290kjGr_6E-57" value="extend" style="edgeLabel;html=1;align=center;verticalAlign=middle;resizable=0;points=[];rotation=-50;" parent="nMlKuRbTzB290kjGr_6E-56" vertex="1" connectable="0">
          <mxGeometry x="0.2288" y="-1" relative="1" as="geometry">
            <mxPoint x="4" y="-22" as="offset" />
          </mxGeometry>
        </mxCell>
        <mxCell id="nMlKuRbTzB290kjGr_6E-58" style="edgeStyle=none;rounded=0;orthogonalLoop=1;jettySize=auto;html=1;exitX=0;exitY=0.5;exitDx=0;exitDy=0;entryX=1;entryY=0;entryDx=0;entryDy=0;endArrow=open;endFill=0;dashed=1;" parent="1" source="nMlKuRbTzB290kjGr_6E-21" target="nMlKuRbTzB290kjGr_6E-17" edge="1">
          <mxGeometry relative="1" as="geometry">
            <mxPoint x="1470" y="250" as="sourcePoint" />
            <mxPoint x="1306" y="165" as="targetPoint" />
            <Array as="points" />
          </mxGeometry>
        </mxCell>
        <mxCell id="nMlKuRbTzB290kjGr_6E-59" value="extend" style="edgeLabel;html=1;align=center;verticalAlign=middle;resizable=0;points=[];rotation=-10;" parent="nMlKuRbTzB290kjGr_6E-58" vertex="1" connectable="0">
          <mxGeometry x="0.2288" y="-1" relative="1" as="geometry">
            <mxPoint x="17" y="-13" as="offset" />
          </mxGeometry>
        </mxCell>
        <mxCell id="nMlKuRbTzB290kjGr_6E-60" style="edgeStyle=none;rounded=0;orthogonalLoop=1;jettySize=auto;html=1;exitX=0;exitY=0.5;exitDx=0;exitDy=0;entryX=1;entryY=1;entryDx=0;entryDy=0;endArrow=open;endFill=0;dashed=1;" parent="1" source="nMlKuRbTzB290kjGr_6E-22" target="nMlKuRbTzB290kjGr_6E-17" edge="1">
          <mxGeometry relative="1" as="geometry">
            <mxPoint x="1441" y="159" as="sourcePoint" />
            <mxPoint x="1361" y="175" as="targetPoint" />
            <Array as="points" />
          </mxGeometry>
        </mxCell>
        <mxCell id="nMlKuRbTzB290kjGr_6E-61" value="extend" style="edgeLabel;html=1;align=center;verticalAlign=middle;resizable=0;points=[];rotation=15;" parent="nMlKuRbTzB290kjGr_6E-60" vertex="1" connectable="0">
          <mxGeometry x="0.2288" y="-1" relative="1" as="geometry">
            <mxPoint x="23" y="-3" as="offset" />
          </mxGeometry>
        </mxCell>
        <mxCell id="nMlKuRbTzB290kjGr_6E-62" style="edgeStyle=none;rounded=0;orthogonalLoop=1;jettySize=auto;html=1;exitX=0;exitY=0.5;exitDx=0;exitDy=0;entryX=0.721;entryY=0.968;entryDx=0;entryDy=0;endArrow=open;endFill=0;dashed=1;entryPerimeter=0;" parent="1" source="nMlKuRbTzB290kjGr_6E-23" target="nMlKuRbTzB290kjGr_6E-17" edge="1">
          <mxGeometry relative="1" as="geometry">
            <mxPoint x="1451" y="169" as="sourcePoint" />
            <mxPoint x="1371" y="185" as="targetPoint" />
            <Array as="points" />
          </mxGeometry>
        </mxCell>
        <mxCell id="nMlKuRbTzB290kjGr_6E-63" value="extend" style="edgeLabel;html=1;align=center;verticalAlign=middle;resizable=0;points=[];rotation=45;" parent="nMlKuRbTzB290kjGr_6E-62" vertex="1" connectable="0">
          <mxGeometry x="0.2288" y="-1" relative="1" as="geometry">
            <mxPoint x="36" y="22" as="offset" />
          </mxGeometry>
        </mxCell>
        <mxCell id="nMlKuRbTzB290kjGr_6E-64" style="edgeStyle=none;rounded=0;orthogonalLoop=1;jettySize=auto;html=1;exitX=0;exitY=0.5;exitDx=0;exitDy=0;entryX=0.832;entryY=0.103;entryDx=0;entryDy=0;endArrow=open;endFill=0;dashed=1;entryPerimeter=0;" parent="1" source="nMlKuRbTzB290kjGr_6E-24" target="nMlKuRbTzB290kjGr_6E-18" edge="1">
          <mxGeometry relative="1" as="geometry">
            <mxPoint x="1441" y="423" as="sourcePoint" />
            <mxPoint x="1334" y="273" as="targetPoint" />
            <Array as="points" />
          </mxGeometry>
        </mxCell>
        <mxCell id="nMlKuRbTzB290kjGr_6E-65" value="extend" style="edgeLabel;html=1;align=center;verticalAlign=middle;resizable=0;points=[];rotation=-35;" parent="nMlKuRbTzB290kjGr_6E-64" vertex="1" connectable="0">
          <mxGeometry x="0.2288" y="-1" relative="1" as="geometry">
            <mxPoint x="9" y="-19" as="offset" />
          </mxGeometry>
        </mxCell>
        <mxCell id="nMlKuRbTzB290kjGr_6E-66" style="edgeStyle=none;rounded=0;orthogonalLoop=1;jettySize=auto;html=1;exitX=0;exitY=0.5;exitDx=0;exitDy=0;entryX=1;entryY=0.5;entryDx=0;entryDy=0;endArrow=open;endFill=0;dashed=1;" parent="1" source="nMlKuRbTzB290kjGr_6E-25" target="nMlKuRbTzB290kjGr_6E-18" edge="1">
          <mxGeometry relative="1" as="geometry">
            <mxPoint x="1451" y="433" as="sourcePoint" />
            <mxPoint x="1344" y="283" as="targetPoint" />
            <Array as="points" />
          </mxGeometry>
        </mxCell>
        <mxCell id="nMlKuRbTzB290kjGr_6E-67" value="extend" style="edgeLabel;html=1;align=center;verticalAlign=middle;resizable=0;points=[];rotation=0;" parent="nMlKuRbTzB290kjGr_6E-66" vertex="1" connectable="0">
          <mxGeometry x="0.2288" y="-1" relative="1" as="geometry">
            <mxPoint x="13" y="-8" as="offset" />
          </mxGeometry>
        </mxCell>
        <mxCell id="nMlKuRbTzB290kjGr_6E-69" style="edgeStyle=none;rounded=0;orthogonalLoop=1;jettySize=auto;html=1;exitX=0;exitY=0.5;exitDx=0;exitDy=0;entryX=1;entryY=1;entryDx=0;entryDy=0;endArrow=open;endFill=0;dashed=1;" parent="1" source="nMlKuRbTzB290kjGr_6E-26" target="nMlKuRbTzB290kjGr_6E-18" edge="1">
          <mxGeometry relative="1" as="geometry">
            <mxPoint x="1461" y="443" as="sourcePoint" />
            <mxPoint x="1354" y="293" as="targetPoint" />
            <Array as="points" />
          </mxGeometry>
        </mxCell>
        <mxCell id="nMlKuRbTzB290kjGr_6E-70" value="extend" style="edgeLabel;html=1;align=center;verticalAlign=middle;resizable=0;points=[];rotation=35;" parent="nMlKuRbTzB290kjGr_6E-69" vertex="1" connectable="0">
          <mxGeometry x="0.2288" y="-1" relative="1" as="geometry">
            <mxPoint x="29" y="8" as="offset" />
          </mxGeometry>
        </mxCell>
        <mxCell id="nMlKuRbTzB290kjGr_6E-71" style="edgeStyle=none;rounded=0;orthogonalLoop=1;jettySize=auto;html=1;exitX=0;exitY=0.5;exitDx=0;exitDy=0;entryX=0.5;entryY=0;entryDx=0;entryDy=0;endArrow=open;endFill=0;dashed=1;" parent="1" source="nMlKuRbTzB290kjGr_6E-27" target="nMlKuRbTzB290kjGr_6E-19" edge="1">
          <mxGeometry relative="1" as="geometry">
            <mxPoint x="1441" y="809" as="sourcePoint" />
            <mxPoint x="1325" y="723" as="targetPoint" />
            <Array as="points" />
          </mxGeometry>
        </mxCell>
        <mxCell id="nMlKuRbTzB290kjGr_6E-72" value="extend" style="edgeLabel;html=1;align=center;verticalAlign=middle;resizable=0;points=[];rotation=-51;" parent="nMlKuRbTzB290kjGr_6E-71" vertex="1" connectable="0">
          <mxGeometry x="0.2288" y="-1" relative="1" as="geometry">
            <mxPoint x="16" y="-29" as="offset" />
          </mxGeometry>
        </mxCell>
        <mxCell id="nMlKuRbTzB290kjGr_6E-73" style="edgeStyle=none;rounded=0;orthogonalLoop=1;jettySize=auto;html=1;exitX=0;exitY=0.5;exitDx=0;exitDy=0;entryX=1;entryY=0;entryDx=0;entryDy=0;endArrow=open;endFill=0;dashed=1;" parent="1" source="nMlKuRbTzB290kjGr_6E-29" target="nMlKuRbTzB290kjGr_6E-19" edge="1">
          <mxGeometry relative="1" as="geometry">
            <mxPoint x="1451" y="819" as="sourcePoint" />
            <mxPoint x="1335" y="733" as="targetPoint" />
            <Array as="points" />
          </mxGeometry>
        </mxCell>
        <mxCell id="nMlKuRbTzB290kjGr_6E-74" value="extend" style="edgeLabel;html=1;align=center;verticalAlign=middle;resizable=0;points=[];rotation=-45;" parent="nMlKuRbTzB290kjGr_6E-73" vertex="1" connectable="0">
          <mxGeometry x="0.2288" y="-1" relative="1" as="geometry">
            <mxPoint x="15" y="-25" as="offset" />
          </mxGeometry>
        </mxCell>
        <mxCell id="nMlKuRbTzB290kjGr_6E-75" style="edgeStyle=none;rounded=0;orthogonalLoop=1;jettySize=auto;html=1;exitX=0;exitY=0.5;exitDx=0;exitDy=0;entryX=1;entryY=0.5;entryDx=0;entryDy=0;endArrow=open;endFill=0;dashed=1;" parent="1" source="nMlKuRbTzB290kjGr_6E-30" target="nMlKuRbTzB290kjGr_6E-19" edge="1">
          <mxGeometry relative="1" as="geometry">
            <mxPoint x="1461" y="829" as="sourcePoint" />
            <mxPoint x="1345" y="743" as="targetPoint" />
            <Array as="points" />
          </mxGeometry>
        </mxCell>
        <mxCell id="nMlKuRbTzB290kjGr_6E-76" value="extend" style="edgeLabel;html=1;align=center;verticalAlign=middle;resizable=0;points=[];rotation=0;" parent="nMlKuRbTzB290kjGr_6E-75" vertex="1" connectable="0">
          <mxGeometry x="0.2288" y="-1" relative="1" as="geometry">
            <mxPoint x="15" y="-8" as="offset" />
          </mxGeometry>
        </mxCell>
        <mxCell id="nMlKuRbTzB290kjGr_6E-77" style="edgeStyle=none;rounded=0;orthogonalLoop=1;jettySize=auto;html=1;entryX=1;entryY=1;entryDx=0;entryDy=0;endArrow=open;endFill=0;dashed=1;exitX=0;exitY=0.5;exitDx=0;exitDy=0;" parent="1" source="nMlKuRbTzB290kjGr_6E-31" target="nMlKuRbTzB290kjGr_6E-19" edge="1">
          <mxGeometry relative="1" as="geometry">
            <mxPoint x="1378" y="1378" as="sourcePoint" />
            <mxPoint x="1355" y="1233" as="targetPoint" />
            <Array as="points" />
          </mxGeometry>
        </mxCell>
        <mxCell id="nMlKuRbTzB290kjGr_6E-78" value="extend" style="edgeLabel;html=1;align=center;verticalAlign=middle;resizable=0;points=[];rotation=30;" parent="nMlKuRbTzB290kjGr_6E-77" vertex="1" connectable="0">
          <mxGeometry x="0.2288" y="-1" relative="1" as="geometry">
            <mxPoint x="20" as="offset" />
          </mxGeometry>
        </mxCell>
        <mxCell id="nMlKuRbTzB290kjGr_6E-79" style="edgeStyle=none;rounded=0;orthogonalLoop=1;jettySize=auto;html=1;entryX=0.5;entryY=1;entryDx=0;entryDy=0;endArrow=open;endFill=0;dashed=1;exitX=0;exitY=0.5;exitDx=0;exitDy=0;" parent="1" source="nMlKuRbTzB290kjGr_6E-28" target="nMlKuRbTzB290kjGr_6E-19" edge="1">
          <mxGeometry relative="1" as="geometry">
            <mxPoint x="1441" y="1362" as="sourcePoint" />
            <mxPoint x="1325" y="1275" as="targetPoint" />
            <Array as="points" />
          </mxGeometry>
        </mxCell>
        <mxCell id="nMlKuRbTzB290kjGr_6E-80" value="extend" style="edgeLabel;html=1;align=center;verticalAlign=middle;resizable=0;points=[];rotation=45;" parent="nMlKuRbTzB290kjGr_6E-79" vertex="1" connectable="0">
          <mxGeometry x="0.2288" y="-1" relative="1" as="geometry">
            <mxPoint x="39" y="26" as="offset" />
          </mxGeometry>
        </mxCell>
        <mxCell id="EYXbbmHJR8HkzzDpaU5I-3" value="" style="rounded=0;whiteSpace=wrap;html=1;fillColor=none;" vertex="1" parent="1">
          <mxGeometry x="108" y="-55" width="590" height="1450" as="geometry" />
        </mxCell>
        <mxCell id="EYXbbmHJR8HkzzDpaU5I-5" value="" style="rounded=0;whiteSpace=wrap;html=1;fillColor=none;" vertex="1" parent="1">
          <mxGeometry x="1114" y="-43" width="590" height="1480" as="geometry" />
        </mxCell>
      </root>
    </mxGraphModel>
  </diagram>
</mxfile>
